<svg xmlns="http://www.w3.org/2000/svg" data-name="Layer 1" viewBox="0 0 48 60" x="0px" y="0px"><title>search</title><path d="M24.78,9.22a1,1,0,0,1,0,1.42,1,1,0,0,1-1.42,0A8.94,8.94,0,0,0,17,8a1,1,0,0,1,0-2A10.92,10.92,0,0,1,24.78,9.22ZM47.71,43.46l-4.25,4.25a1,1,0,0,1-.7.29,1,1,0,0,1-.71-.29L31.44,37.1a1,1,0,0,1-.29-.71,1,1,0,0,1,.29-.7h0L26.7,31A17,17,0,0,1,5,5,17,17,0,0,1,31,26.7l4.74,4.74h0a1,1,0,0,1,1.41,0L47.71,42.05A1,1,0,0,1,47.71,43.46ZM17,32A15,15,0,1,0,6.39,27.61,14.93,14.93,0,0,0,17,32Zm15.86,2.27,1.41-1.41-4.58-4.58c-.22.25-.43.5-.67.74s-.49.45-.74.67Zm12.73,8.49-9.2-9.2-2.83,2.83,9.2,9.2Z"/><text x="0" y="63" fill="#000000" font-size="5px" font-weight="bold" font-family="'Helvetica Neue', Helvetica, Arial-Unicode, Arial, Sans-serif">Created by Mello</text><text x="0" y="68" fill="#000000" font-size="5px" font-weight="bold" font-family="'Helvetica Neue', Helvetica, Arial-Unicode, Arial, Sans-serif">from the Noun Project</text></svg>